<svg width="100" height="100" viewBox="0 0 100 100" fill="none" xmlns="http://www.w3.org/2000/svg">
<g clip-path="url(#clip0_72_28)">
<path d="M99.6 50.2222C99.6 77.6444 77.3778 99.8222 50 99.8222C22.5778 99.8222 0.400024 77.6444 0.400024 50.2222C0.400024 22.8 22.5778 0.622223 50 0.622223C77.3778 0.622223 99.6 22.8 99.6 50.2222Z" fill="#FCE8E3"/>
<path d="M63.2445 73.3333H36.9778V43.6889H63.2445V73.3333Z" fill="#E2988F"/>
<path d="M50.1333 99.8222C32.1333 99.8222 16.3999 90.3111 7.73328 76C21.7333 69.7333 36.9777 67.5111 36.9777 67.5111C43.1999 74.9333 56.2222 74.8444 63.2444 67.5111C63.2444 67.5111 78.5333 69.7333 92.5333 76C83.8222 90.3111 68.0888 99.8222 50.1333 99.8222V99.8222Z" fill="white"/>
<path d="M92.5333 76C86.5333 85.8222 77.2 93.4222 66.0889 97.2V68C71.1555 68.9778 82.1778 71.3778 92.5333 76Z" fill="#F4BA5D"/>
<path d="M34.0888 97.2C23.0222 93.4222 13.6888 85.8222 7.73328 76C17.9999 71.3778 28.9777 68.9778 34.0888 68.0444V97.2Z" fill="#F4BA5D"/>
<path d="M49.7334 76.4C49.6741 76.4 49.6 76.4 49.5112 76.4C42.7112 76.3556 36.9778 73.3333 33.8223 68.2222L34.3556 67.8667C37.4223 72.8 42.9778 75.6889 49.5112 75.7333C56.3112 75.7778 62.6223 72.8 65.8223 67.8667L66.3556 68.2222C63.0667 73.2889 56.7112 76.4 49.7334 76.4Z" fill="#EABFB9"/>
<path d="M72.9778 42.0444C71.3778 44.6222 68.8444 43.4222 68.8444 43.4222C68.8444 43.4222 68.2667 49.4667 67.5111 51.5111C66.7556 53.5111 58.2222 62.7556 55.6889 64.1778C52.7111 66.1333 47.8667 66.1333 44.5333 64.1778C42.0444 62.7556 33.4667 53.5111 32.7111 51.5111C31.9556 49.4667 31.3778 43.5556 31.3778 43.5556C31.3778 43.5556 28.8889 44.6222 27.2444 42.0444C25.6 39.4667 22.9778 31.3333 24.4 27.9111C25.8667 24.4444 28.8 26.1333 28.8 26.1333C27.1111 10.4 35.1111 0 50.1333 0C65.1111 0 73.1111 10.4 71.4222 26.1333C71.4222 26.1333 74.4 24.4444 75.8222 27.9111C77.2889 31.3333 74.6222 39.4667 72.9778 42.0444V42.0444Z" fill="#E2988F"/>
<path d="M50.2667 65.9556C48.1778 65.9556 46.089 65.4667 44.4001 64.4889C42.8445 63.6444 39.3334 60.1333 36.7556 57.2L37.2445 56.7556C39.9112 59.7333 43.3334 63.1111 44.7112 63.9111C47.9112 65.7778 52.6223 65.7778 55.5112 63.9111C56.9334 63.1111 60.3556 59.7333 62.9778 56.7556L63.5112 57.2C60.8889 60.1333 57.3778 63.6444 55.8667 64.4889C54.3112 65.4667 52.3112 65.9556 50.2667 65.9556V65.9556Z" fill="#C46966"/>
<path d="M31.0222 43.6L30.6222 39.8667L31.2889 39.7778L31.6889 43.5111L31.0222 43.6Z" fill="#C46966"/>
<path d="M69.2 43.4667L68.5333 43.4222L68.9333 39.8222L69.5555 39.8667L69.2 43.4667Z" fill="#C46966"/>
<path d="M26.3556 35.6889C26.2222 35.1556 25.0222 30.6667 26.6667 29.4222C27.2 29.0667 27.6445 29.1111 27.9111 29.2C28.7556 29.4667 29.1556 30.4889 29.2 30.6222L28.5778 30.8445C28.4889 30.6222 28.1333 29.9556 27.6889 29.8222C27.4815 29.763 27.2593 29.8074 27.0222 29.9556C26.0889 30.6667 26.4889 33.7333 26.9778 35.5111L26.3556 35.6889Z" fill="#C46966"/>
<path d="M73.9111 35.6889L73.2444 35.5111C73.7333 33.7333 74.1333 30.6667 73.2 29.9556C72.963 29.8074 72.7407 29.763 72.5333 29.8222C72 30 71.6889 30.8445 71.6444 30.8445L71.0222 30.6222C71.0667 30.4889 71.5111 29.4667 72.3111 29.2C72.6222 29.1111 73.0667 29.0667 73.5555 29.4222C75.2 30.6667 74.0444 35.1556 73.9111 35.6889V35.6889Z" fill="#C46966"/>
<path d="M28.8 26.1333C27.1111 10.4 35.1111 0 50.1333 0C65.1111 0 73.1111 10.4 71.4222 26.1333C68.9778 27.4222 68.9778 31.0667 69.2889 34.4C64.8444 34.4444 68.2222 20.0444 64.7111 16.5778C63.0222 14.8889 37.2889 14.8 35.5111 16.5778C32.0444 20.0444 35.3778 34.4444 30.9333 34.4C31.2444 30.9333 30.8 27.4222 28.8 26.1333V26.1333Z" fill="#4C224B"/>
<path d="M61.1111 46H50.1333H39.1111C39.5555 38.9333 50.1333 39.1556 50.1333 39.1556C50.1333 39.1556 60.6666 38.9333 61.1111 46Z" fill="#4C224B"/>
</g>
<defs>
<clipPath id="clip0_72_28">
<rect width="100" height="100" fill="white"/>
</clipPath>
</defs>
</svg>
