<svg width="110" height="68" viewBox="0 0 110 68" fill="none" xmlns="http://www.w3.org/2000/svg">
<path d="M52.4287 0.28162C51.7608 0.691944 51.6495 0.957451 51.6495 2.21256C51.6495 4.52969 50.8703 5.30207 48.5327 5.30207C46.6626 5.30207 46.3064 5.54344 46.3064 6.82269C46.3064 9.40532 45.5718 10.4432 43.8353 10.3949C42.7444 10.3708 41.4754 10.8535 41.1415 11.4328C41.0524 11.5776 40.9634 12.3741 40.9634 13.2189C40.9634 14.9809 40.5404 16.236 39.8057 16.6705C39.5386 16.8394 38.559 17.0084 37.6685 17.0325C36.6222 17.0567 35.843 17.2256 35.509 17.467C34.9747 17.8532 34.9525 17.9739 34.9525 20.3876C34.9525 23.7184 35.086 23.8874 37.713 23.8874C39.3605 23.8874 39.6721 23.9598 40.2065 24.4425C40.7408 24.9494 40.8298 25.239 40.9411 26.8803C41.1192 29.2216 41.4977 29.6802 43.3232 29.6802C45.5272 29.6802 46.1061 30.3319 46.2619 32.9869L46.3732 34.7489H47.9093C50.5363 34.7489 51.6495 35.642 51.6495 37.7419C51.6495 38.3453 51.7385 39.0936 51.8721 39.4315C52.0725 40.059 52.117 40.059 54.2987 40.059C56.013 40.059 56.5473 39.9866 56.7922 39.6728C57.1929 39.1418 57.3265 36.8247 56.9925 35.9316C56.6363 35.0386 56.013 34.7489 54.3433 34.7489C53.2969 34.7489 52.9852 34.6524 52.6068 34.1938C51.8944 33.349 51.6495 32.6973 51.6495 31.5629C51.6495 30.9836 51.5604 30.4043 51.4714 30.2354C51.182 29.7526 50.1356 29.4388 48.7776 29.4388C47.7312 29.4388 47.4196 29.3423 47.0188 28.8837C46.1283 27.8458 45.7944 25.8907 46.3287 24.7804C46.7072 24.0322 46.863 23.9598 48.5104 23.7667C49.3119 23.6702 50.2024 23.4529 50.4696 23.284C51.5604 22.5116 51.7608 19.1324 50.7812 17.998C50.3582 17.5153 50.002 17.3946 48.7108 17.3222C47.3305 17.2498 47.0856 17.1532 46.6181 16.5739C46.1951 16.0188 46.0838 15.6326 46.1061 14.5223C46.1283 11.5776 46.9966 10.6122 49.5568 10.6122C51.271 10.6122 51.6495 10.226 51.6495 8.48812C51.6495 7.45024 51.7608 7.11233 52.3174 6.41236C52.963 5.61585 53.1188 5.56757 54.7885 5.39862C56.9035 5.20552 57.2152 4.89174 57.2152 2.93666C57.2152 1.44019 56.7699 0.354031 56.0575 0.136799C55.2115 -0.104568 52.8962 -0.00802231 52.4287 0.28162Z" fill="#6D9886"/>
<path d="M58.9962 5.95377C58.1725 6.12273 57.6605 6.94338 57.6605 8.19849C57.6382 10.4674 57.1929 10.8535 54.6327 10.8535C53.0743 10.8535 52.451 11.2397 52.1838 12.4466C51.9389 13.4603 52.2506 15.705 52.7181 16.3809C53.0966 16.9601 53.3192 17.0084 55.0557 17.1291C57.6159 17.2981 57.9944 17.6601 58.1725 20.1221C58.2615 21.0875 58.3729 22.053 58.4397 22.2461C58.5955 22.6806 59.5083 22.9219 60.9999 22.9219C61.9349 22.9219 62.1575 23.0185 62.7586 23.7667C63.382 24.5391 63.4488 24.7805 63.4488 26.2045C63.4488 27.5562 63.382 27.8458 62.8699 28.3768C62.3356 28.9803 62.202 29.0044 60.421 28.932C58.128 28.8113 57.794 28.5217 57.5714 26.3735C57.3265 24.1046 57.4378 24.2012 55.2561 24.0564C52.54 23.8874 52.54 23.8874 52.54 26.7838C52.54 28.5458 52.6068 29.1975 52.8294 29.2216C52.963 29.2216 53.8535 29.294 54.7663 29.3423C57.2375 29.5113 57.4824 29.7044 57.794 31.7077C58.128 33.9766 58.4842 34.2662 60.8218 34.2662C62.5137 34.2662 63.3597 34.0248 63.7159 33.4456C63.805 33.3007 63.894 32.5766 63.894 31.8525C63.894 31.1284 64.0499 30.3319 64.2057 30.0905C64.6064 29.5354 65.675 29.2216 67.1221 29.2216C69.1035 29.2458 69.2371 29.0768 69.2371 26.3976C69.2371 23.2116 69.1925 23.1633 66.9217 23.1633C65.3856 23.1633 64.9626 23.0667 64.4728 22.6564C63.5823 21.9082 63.2261 20.9427 63.2261 19.3497C63.2261 17.5877 63.0258 17.3705 61.178 17.2015C59.6418 17.0567 58.4397 16.4291 58.217 15.6568C57.9053 14.643 58.0612 12.7121 58.4842 12.0845C59.1298 11.1673 60.4433 10.757 61.7791 11.0949C63.382 11.4811 63.894 12.0845 63.894 13.6293C63.894 14.5465 64.0276 15.0775 64.3615 15.5361C64.7845 16.1154 64.9404 16.1636 66.5433 16.1636C68.8809 16.1636 69.2371 15.8257 69.2371 13.5569C69.2371 11.288 68.9922 10.9742 67.0776 10.7811C66.2539 10.6846 65.1853 10.4915 64.74 10.3708C63.9831 10.1294 63.894 10.0088 63.894 9.33292C63.8717 8.22263 63.5378 6.72615 63.1816 6.3641C62.8699 6.02618 59.9535 5.73654 58.9962 5.95377Z" fill="#393E46"/>
<path d="M71.0626 18.0222C70.6619 18.2394 70.2834 18.6497 70.2166 18.9876C69.994 19.8807 70.2389 21.9565 70.6173 22.3426C71.0403 22.8012 72.3316 23.0185 73.3557 22.8254C75.248 22.4392 75.671 18.9635 73.9345 17.9739C73.0885 17.5153 71.9976 17.5153 71.0626 18.0222Z" fill="#393E46"/>
<path d="M0 54.9997V63.2303H0.845983C2.73831 63.2303 2.67152 63.351 2.67152 59.5857V56.2307H3.67335H4.69743L4.6529 59.6581L4.63064 63.1097H5.98867H7.34669V59.3202V55.5066L6.79012 55.3617C6.47845 55.2893 6.23356 55.1928 6.23356 55.1445C6.23356 55.0962 6.47845 54.5894 6.79012 54.0342C7.25764 53.117 7.34669 52.6826 7.34669 50.7516C7.34669 48.6276 7.32443 48.4828 6.70107 47.7345L6.05546 46.938L3.02773 46.8656L0 46.7691V54.9997ZM4.78648 51.524V53.9377L3.74013 54.0101L2.67152 54.0825V51.524V48.9655L3.74013 49.0379L4.78648 49.1103V51.524Z" fill="#393E46"/>
<path d="M48.5327 55.048C48.5327 62.4579 48.5772 63.2786 48.8889 63.1338C49.0893 63.0614 49.6904 62.9889 50.2247 62.9889H51.2042V59.6098V56.2307H52.2061H53.2079V59.7546C53.2079 62.8683 53.2524 63.2545 53.5641 63.1338C53.7645 63.0614 54.3655 62.9889 54.8998 62.9889H55.8794V59.3684C55.8794 56.0617 55.8349 55.6996 55.4342 55.2652C54.8776 54.6618 54.8776 54.2514 55.4342 53.6963C55.8571 53.286 55.8794 52.9963 55.8349 50.5826L55.7681 47.9276L54.8776 47.3725C54.0984 46.8897 53.6754 46.8173 51.271 46.8173H48.5327V55.048ZM53.386 51.4516L53.3192 53.9377H52.3174H51.3156L51.2488 51.7895C51.2042 50.6068 51.2265 49.4965 51.2933 49.3034C51.3601 49.1103 51.7831 48.9896 52.4287 48.9896H53.4528L53.386 51.4516Z" fill="#393E46"/>
<path d="M42.6776 48.169C42.4104 48.4586 42.4995 59.8753 42.7667 60.9374C42.9002 61.4684 43.2787 62.1925 43.5904 62.5545C44.1024 63.1579 44.325 63.2303 45.5718 63.2303H46.9743V62.1683C46.9743 61.2029 46.9298 61.1304 46.44 61.227C46.1506 61.2994 45.7053 61.227 45.4382 61.0822C44.9929 60.8167 44.9707 60.6236 44.9707 57.1237C44.9707 55.0963 45.0597 53.3101 45.171 53.1412C45.3046 52.9239 45.594 52.8757 46.1728 52.9722L46.9743 53.1412V52.0309V50.9206H45.9725H44.9707V49.5931V48.2655H44.2137C43.7907 48.2655 43.301 48.2173 43.1451 48.1449C42.967 48.0725 42.7667 48.0966 42.6776 48.169Z" fill="#393E46"/>
<path d="M75.7377 48.2414C75.2925 48.5311 75.4483 61.2029 75.8936 61.927C76.4279 62.7959 77.3406 63.2303 78.6764 63.2303H79.9231V62.289C79.9231 61.3477 79.9009 61.3235 79.0994 61.2511L78.2534 61.1787L78.1866 57.5582C78.0976 52.9722 78.1421 52.8515 79.1439 53.0205L79.9231 53.1653V52.0309V50.9206H79.0326H78.1421V49.5931V48.2656H77.3852C76.9622 48.2656 76.4947 48.2173 76.3166 48.1449C76.1607 48.0725 75.8936 48.1207 75.7377 48.2414Z" fill="#393E46"/>
<path d="M105.792 55.048L105.859 61.8304L106.616 62.5062C107.15 63.0131 107.64 63.2062 108.464 63.2786C109.755 63.3751 110.045 63.1096 109.933 61.9752C109.866 61.2511 109.8 61.1787 109.087 61.1787H108.308L108.241 57.6789C108.174 53.286 108.219 53.0446 109.154 53.1412C109.866 53.2136 109.866 53.1894 109.933 52.055L110 50.9206H109.11H108.197V49.593V48.2655H106.972H105.726L105.792 55.048Z" fill="#393E46"/>
<path d="M11.955 50.6792C10.8196 50.7999 10.5525 50.9206 9.97362 51.6206L9.328 52.4171L9.39479 57.1237L9.46158 61.8304L10.1962 62.5304C10.8641 63.1821 11.0422 63.2303 12.7119 63.2303C14.6711 63.2303 15.517 62.9166 16.1181 61.9028C16.4966 61.2753 16.5634 59.1754 16.2072 59.2961C16.0959 59.3443 15.5838 59.3685 15.0273 59.3685C14.0254 59.3685 14.0254 59.3685 14.0254 60.2374V61.0822L12.9791 61.0098L11.9105 60.9374L11.8437 59.5374C11.7546 57.5099 11.866 57.4134 14.4039 57.5341L16.5189 57.6548L16.4298 54.9032C16.363 52.2723 16.3408 52.1033 15.7619 51.4999C15.0718 50.7516 13.8919 50.4861 11.955 50.6792ZM13.9141 54.2997V55.8686H12.9123H11.9105L11.8437 54.4446C11.7546 52.8274 11.955 52.5619 13.1349 52.6584L13.9141 52.7309V54.2997Z" fill="#393E46"/>
<path d="M29.7875 50.6551C28.5408 50.8482 27.9174 51.4033 27.5835 52.6102C27.2496 53.817 27.4054 61.227 27.7839 61.9511C28.2291 62.8442 29.2087 63.2303 30.9897 63.2303C32.8375 63.2303 33.9284 62.6993 34.2846 61.6373C34.4182 61.2994 34.5072 59.0788 34.5072 56.6651V52.3205L33.7503 51.4999C33.3273 51.0413 32.793 50.6792 32.5481 50.6792C32.3032 50.6792 31.8357 50.631 31.4795 50.5827C31.1233 50.5344 30.3663 50.5585 29.7875 50.6551ZM31.7689 52.5619C31.947 52.6826 32.0361 53.9377 32.0583 56.4721C32.1251 61.8787 32.2364 61.3477 31.012 61.2511L29.9434 61.1787V57.0031C29.9656 53.5998 30.0101 52.7791 30.2773 52.6102C30.678 52.3205 31.4127 52.3205 31.7689 52.5619Z" fill="#393E46"/>
<path d="M40.0061 50.9689C39.7167 51.4516 39.6053 51.4758 39.2046 51.2103C38.9597 51.0654 38.2918 50.9206 37.7353 50.9206H36.7335V57.0031V63.1097L37.9579 63.0373L39.1824 62.9407V58.3789V53.817H40.0729H40.9634V52.1274C40.9634 50.2931 40.674 49.931 40.0061 50.9689Z" fill="#393E46"/>
<path d="M60.5991 50.7034C59.4637 50.824 59.0629 50.993 58.5954 51.4999C57.9943 52.1274 57.9943 52.1998 57.9275 55.941C57.8385 60.7684 57.9498 61.6856 58.818 62.5545C59.4414 63.1821 59.5972 63.2303 61.445 63.2303C63.2261 63.2303 63.4709 63.1821 64.0943 62.6028C64.5396 62.2166 64.829 61.6856 64.918 61.1063C64.9848 60.6236 65.0961 60.0202 65.1629 59.7788C65.252 59.4167 65.0961 59.3685 63.8939 59.3685H62.5359L62.6027 60.1408C62.6695 60.9374 62.6695 60.9374 61.6231 61.0098L60.5545 61.0822V59.4167C60.5545 57.4134 60.5768 57.3892 63.1147 57.4617C64.0943 57.4858 64.918 57.4375 64.9625 57.341C64.9848 57.2686 65.0071 56.11 65.0071 54.7825C65.0071 52.4895 64.9848 52.3447 64.3837 51.6206C63.649 50.7275 62.625 50.4861 60.5991 50.7034ZM62.5136 54.2273L62.4469 55.8686H61.5564H60.6658L60.5991 54.5652C60.51 52.7791 60.5991 52.6102 61.6677 52.6102H62.5804L62.5136 54.2273Z" fill="#393E46"/>
<path d="M99.1358 50.655C97.9781 50.8723 97.1322 51.6688 96.8205 52.8515C96.6646 53.4066 96.5979 55.1686 96.6646 57.4616C96.7982 62.82 97.1767 63.3751 100.627 63.2062C102.809 63.0855 103.388 62.6027 103.744 60.5994C104.123 58.3788 104.145 58.4029 102.631 58.4029H101.295V59.7546V61.0821L100.249 61.0097L99.1803 60.9373L99.1135 57.2202C99.069 54.71 99.1358 53.4066 99.3139 53.1894C99.4475 52.9963 99.9595 52.8515 100.427 52.8515H101.295V54.2756V55.6996L102.141 55.6514C104.056 55.5065 103.878 55.6755 103.789 53.8894C103.677 52.2481 103.321 51.3309 102.631 50.9205C102.074 50.6068 100.204 50.4619 99.1358 50.655Z" fill="#393E46"/>
<path d="M20.9714 51.3067C20.2367 51.9343 20.2367 51.9343 20.1032 51.4274C20.0141 51.0171 19.8137 50.9206 19.1236 50.9206H18.2554V56.7858C18.2554 60.0201 18.1886 63.6648 18.1218 64.8716L17.9659 67.0922H19.3462H20.7043V64.7992V62.5062L21.5725 62.9648C22.2181 63.3269 22.5966 63.3993 23.0864 63.2544C25.1568 62.6028 25.3794 61.9993 25.3794 56.9306C25.3794 52.7791 25.1791 51.7895 24.1772 51.0412C23.4203 50.4378 21.8174 50.5826 20.9714 51.3067ZM22.7969 53.2377C22.8637 53.4549 22.9305 55.2893 22.9305 57.3409V61.058H21.8174H20.7043V57.1237C20.7043 54.9514 20.771 53.0929 20.8601 53.0205C21.1718 52.6825 22.6634 52.8515 22.7969 53.2377Z" fill="#393E46"/>
<path d="M67.6787 51.3309C66.8327 52.1516 66.521 53.455 66.7214 55.3618C66.9217 57.5582 67.3892 57.9927 69.7046 58.1616L71.5746 58.2823L71.6414 59.3202C71.7305 60.7443 71.4188 61.1063 70.1498 61.0098C69.1925 60.9374 69.1257 60.8891 69.0589 60.2133C68.9922 59.5133 68.9476 59.465 67.9013 59.4167L66.7881 59.3685V60.5512C66.7881 61.589 66.8772 61.8063 67.5673 62.4821C68.3243 63.1821 68.4578 63.2303 70.2389 63.2303C71.9976 63.2303 72.1757 63.1821 72.8436 62.5304L73.5783 61.8304V59.3926C73.5783 57.0755 73.556 56.9306 72.9772 56.3272C72.4651 55.7479 72.1757 55.6514 70.5951 55.5549L68.7918 55.4342V54.6135C68.7918 53.455 69.1257 52.9239 69.9049 52.7309C70.7286 52.5378 71.2407 52.9239 71.2407 53.7205C71.2407 54.2515 71.3297 54.2997 72.3538 54.2997H73.467V53.117C73.467 52.0309 73.4002 51.8378 72.7323 51.3068C72.0644 50.7516 71.775 50.6792 70.1721 50.6792C68.5024 50.6792 68.302 50.7275 67.6787 51.3309Z" fill="#393E46"/>
<path d="M84.4646 51.2827C83.7968 52.0068 83.4851 52.055 83.4851 51.4033C83.4851 50.993 83.3292 50.9206 82.6168 50.9206H81.7709L81.6595 54.8308C81.5928 57.0031 81.5482 59.7305 81.5705 60.9132L81.5928 63.0855H82.8172L84.0416 63.1097V58.572C84.0416 53.6239 84.0862 53.4308 85.3329 53.6722L85.934 53.7929V52.2481C85.934 50.8241 85.8895 50.6792 85.4887 50.6792C85.2216 50.6792 84.7763 50.9447 84.4646 51.2827Z" fill="#393E46"/>
<path d="M87.4924 55.8686C87.4924 61.2028 87.626 62.0718 88.6278 62.8441C89.2734 63.3269 90.2753 63.3269 91.4997 62.8683C92.6574 62.4338 92.6129 62.4338 92.6129 62.8924C92.6129 63.1579 92.7242 63.2303 92.9691 63.1338C93.1694 63.0614 93.6369 62.989 94.0154 62.989H94.7278V56.9548V50.9206H93.3253H91.9004L91.9895 55.9893L92.0563 61.058H91.0099H89.9413V55.9893V50.9206H88.7169H87.4924V55.8686Z" fill="#393E46"/>
</svg>
