<svg width="782" height="503" viewBox="0 0 782 503" fill="none" xmlns="http://www.w3.org/2000/svg">
<path d="M66.2011 500C66.2011 500 66.2011 478.338 56.2189 447.163C46.308 415.914 -4.95775 409.62 0.389863 364.906C29.053 375.518 51.6556 419.134 56.6467 432.453C39.8196 365.272 51.6556 317.777 51.6556 317.777C51.6556 317.777 74.6147 368.053 66.2011 432.819C96.3616 355.1 120.176 344.488 120.176 344.488C120.176 344.488 113.973 391.544 97.5738 416.28C81.1031 441.015 68.4828 440.649 68.4828 440.649C68.4828 440.649 68.8393 481.265 76.112 500H66.2011Z" fill="white"/>
<path d="M725.953 500C725.953 500 725.953 478.338 716.043 447.163C706.132 415.914 654.866 409.62 660.214 364.906C688.877 375.518 711.479 419.134 716.399 432.453C699.572 365.272 711.479 317.777 711.479 317.777C711.479 317.777 734.438 368.053 725.953 432.819C756.185 355.1 780 344.488 780 344.488C780 344.488 773.797 391.544 757.326 416.28C740.927 441.015 728.306 440.649 728.306 440.649C728.306 440.649 728.663 481.265 735.936 500H725.953Z" fill="white"/>
<path d="M219.856 454.408L222.922 478.704L216.077 490.925L199.392 484.266L194.259 460.482" fill="#F0C9CF"/>
<path d="M257.574 499.341H197.681L199.392 484.266H215.292L222.209 474.24L258.501 495.829C260.141 496.78 259.428 499.341 257.574 499.341V499.341Z" fill="#1F2251"/>
<path d="M116.397 460.482L109.695 484.266L93.0818 490.925L86.1655 478.704L90.7288 454.408" fill="#F0C9CF"/>
<path d="M237.966 217.079L210.8 253.816C209.802 255.06 209.232 256.597 209.161 258.207L206.808 290.919L197.111 222.202L210.872 198.564L209.446 193.807L204.312 176.097L231.121 165.705L232.69 170.682L241.246 196.588C243.528 203.54 242.316 211.224 237.966 217.079V217.079Z" fill="#F0C9CF"/>
<path d="M232.69 170.682L209.446 193.807L204.312 176.097L231.121 165.705L232.69 170.682Z" fill="#D683A7"/>
<path d="M224.847 457.774L191.906 463.263L166.094 349.319L159.677 321.07L159.535 320.339L117.609 466.117L84.6682 456.823L115.257 254.328L117.609 238.96L201.103 237.716L202.03 246.059L224.847 457.774Z" fill="#99A3CA"/>
<path d="M202.03 248.986L115.257 257.256L116.54 248.986L117.609 241.888L201.103 240.644L201.816 247.523L202.03 248.986Z" fill="#7988B8"/>
<path d="M201.816 247.523C183.706 250.23 129.374 249.279 116.54 248.986L117.609 241.888L201.103 240.644L201.816 247.523Z" fill="#1F2251"/>
<path d="M235.328 164.095L216.005 175.878L213.51 177.414L207.735 181V181.147L207.592 183.708L206.736 204.492L206.594 207.053L205.667 227.837L205.595 230.398L205.31 236.911C205.31 236.911 208.733 240.863 207.806 244.156C207.592 244.961 201.816 245.62 193.26 246.059C192.452 246.108 191.62 246.157 190.765 246.205C184.847 246.425 177.859 246.571 170.515 246.644C169.707 246.644 168.875 246.669 168.02 246.718C161.317 246.718 154.33 246.718 147.77 246.571C146.914 246.523 146.083 246.498 145.274 246.498C137.574 246.352 130.515 246.059 125.025 245.547C124.122 245.498 123.29 245.425 122.529 245.327C116.968 244.815 113.617 244.083 113.688 243.205C114.116 238.521 116.968 235.374 116.968 235.374V230.398V227.837L117.039 207.053L117.11 204.492L117.182 183.708V182.391L115.114 181.147L102.208 173.463L99.7128 171.926L83.67 162.339L84.5969 160.29L85.6664 157.802L94.793 136.945L95.9338 134.384L99.7128 125.675L100.568 123.845C101.091 122.674 101.638 121.528 102.208 120.406C103.539 117.966 105.013 115.698 106.629 113.6C107.295 112.722 108.008 111.868 108.768 111.039C112.69 106.648 117.324 103.062 122.529 100.354C123.337 99.9636 124.169 99.5733 125.025 99.183C128.59 97.6462 132.369 96.4753 136.29 95.8898L142.28 94.9385L145.274 94.4262L147.77 94.0603H147.841L168.02 95.7435L170.515 95.963L176.647 96.4753L181.781 97.2071C182.114 97.2559 182.423 97.3047 182.708 97.3535C185.488 97.7926 188.198 98.5244 190.765 99.4758C191.62 99.7685 192.452 100.086 193.26 100.427C199.107 102.842 204.383 106.501 208.733 111.039C209.541 111.868 210.325 112.722 211.086 113.6C211.941 114.624 212.749 115.698 213.51 116.82C214.413 118.088 215.245 119.406 216.005 120.772C216.861 122.235 217.622 123.748 218.287 125.309L222.28 134.384L223.421 136.945L232.547 157.802L233.688 160.29L235.328 164.095Z" fill="#6D9886"/>
<g style="mix-blend-mode:overlay" opacity="0.3">
<path fill-rule="evenodd" clip-rule="evenodd" d="M233.688 160.29H216.005V175.878L213.51 177.414V160.29H193.26V181.147H207.735L207.592 183.708H193.26V204.492H206.736L206.594 207.053H193.26V227.837H205.667L205.595 230.398H193.26V246.059C192.452 246.108 191.62 246.157 190.765 246.205V230.398H170.515V246.644C169.707 246.644 168.875 246.669 168.02 246.718V230.398H147.77V246.571C146.914 246.523 146.083 246.498 145.274 246.498V230.398H125.025V245.547C124.122 245.498 123.29 245.425 122.529 245.327V230.398H116.968V227.837H122.529V207.053H117.039L117.11 204.492H122.529V183.708H117.182V182.391L115.114 181.147H122.529V160.29H102.208V173.463L99.7128 171.926V160.29H84.5969L85.6664 157.802H99.7128V136.945H94.793L95.9338 134.384H99.7128V125.675L100.568 123.845C101.091 122.674 101.638 121.528 102.208 120.406V134.384H122.529V113.6H106.629C107.295 112.722 108.008 111.868 108.768 111.039H122.529V100.354C123.337 99.9636 124.169 99.5733 125.025 99.183V111.039H145.274V94.4262L147.77 94.0603V111.039H168.02V95.7435L170.515 95.963V111.039H190.765V99.4758C191.62 99.7685 192.452 100.086 193.26 100.427V111.039H208.733C209.541 111.868 210.325 112.722 211.086 113.6H193.26V134.384H213.51V116.82C214.413 118.088 215.245 119.406 216.005 120.772V134.384H222.28L223.421 136.945H216.005V157.802H232.547L233.688 160.29ZM122.529 136.872H102.28V157.729H122.529V136.872ZM145.274 206.907H125.025V227.764H145.274V206.907ZM145.274 183.489H125.025V204.345H145.274V183.489ZM145.274 160.144H125.025V180.927H145.274V160.144ZM145.274 136.725H125.025V157.582H145.274V136.725ZM145.274 113.38H125.025V134.164H145.274V113.38ZM168.02 206.834H147.77V227.617H168.02V206.834ZM168.02 183.489H147.77V204.272H168.02V183.489ZM168.02 160.144H147.77V181H168.02V160.144ZM168.02 136.725H147.77V157.582H168.02V136.725ZM168.02 113.38H147.77V134.164H168.02V113.38ZM190.765 206.834H170.515V227.617H190.765V206.834ZM190.765 183.489H170.515V204.272H190.765V183.489ZM190.765 160.144H170.515V180.927H190.765V160.144ZM190.765 136.799H170.515V157.582H190.765V136.799ZM190.765 113.453H170.515V134.31H190.765V113.453ZM213.581 136.799H193.26V157.582H213.581V136.799Z" fill="white"/>
</g>
<path d="M182.708 97.3535C180.783 105.769 176.219 113.966 165.738 113.819C148.697 113.673 143.634 100.354 142.28 94.9385L147.841 94.0603L176.647 96.4753L181.781 97.2071C182.114 97.2559 182.423 97.3047 182.708 97.3535Z" fill="white"/>
<path d="M204.312 176.097L202.102 142.214" stroke="#1F2251" stroke-width="1.1" stroke-linecap="round" stroke-linejoin="round"/>
<path d="M190.052 40.2716C190.052 40.2716 193.617 44.2966 190.765 51.2488C187.984 58.2011 186.558 64.0556 186.344 70.642C186.13 75.9843 163.171 79.2043 155.257 80.1557C153.617 80.302 152.69 80.4484 152.69 80.4484L146.415 67.8611C145.56 65.5925 143.563 61.3479 141.852 56.5179C139 48.6143 136.79 38.9543 141.282 33.3193C148.554 24.1715 156.683 28.1965 169.089 21.9029C181.496 15.6093 187.699 9.82789 194.829 18.3902C202.03 26.9524 190.052 40.2716 190.052 40.2716Z" fill="#1F2251"/>
<path d="M157.396 77.3747L155.257 80.1556C153.617 80.302 152.69 80.4484 152.69 80.4484L146.415 67.8611C145.56 65.5925 143.563 61.3479 141.852 56.5179C147.984 53.9566 152.262 47.297 152.262 47.297L157.396 77.3747Z" fill="#161937"/>
<path d="M176.647 96.4752C176.647 96.4752 177.217 108.916 164.098 108.477C150.979 107.965 147.841 94.0602 147.841 94.0602L151.478 93.2552C151.478 93.2552 152.832 78.3993 151.478 67.8611L176.647 80.9606C176.409 81.2046 176.172 81.4729 175.934 81.7656C173.011 85.8638 173.367 95.3043 173.367 95.3043L176.647 96.4752Z" fill="#F0C9CF"/>
<path d="M173.367 95.3044C157.182 95.8167 152.69 76.3503 152.69 76.3503L175.934 81.7658C173.011 85.864 173.367 95.3044 173.367 95.3044Z" fill="#D683A7"/>
<path d="M187.984 68.9588C188.055 71.3738 187.913 73.6424 187.628 75.8379C186.273 84.7661 181.638 91.1329 170.373 90.1815C153.831 88.7911 150.836 72.1056 150.836 72.1056C150.836 72.1056 146.558 75.7647 142.422 71.5934C138.287 67.422 140.355 61.0552 144.348 60.3234C146.558 59.9574 148.697 62.2261 150.194 64.3484C150.836 65.2997 152.262 64.8606 152.262 63.6897V47.297C152.262 47.297 172.44 48.1751 184.49 43.6379C184.538 43.6379 184.609 43.6135 184.704 43.5647C186.558 45.3942 187.271 47.8092 187.485 50.4438C187.77 54.1761 187.128 58.2743 187.556 61.7138C187.77 64.1288 187.984 66.617 187.984 68.9588V68.9588Z" fill="#F0C9CF"/>
<path d="M175.934 61.9333L178.572 68.0806C179.071 69.2515 178.644 70.642 177.574 71.3006L175.934 72.252" stroke="#C85E8B" stroke-width="1.1" stroke-linecap="round"/>
<path d="M170.23 66.3244C170.23 67.1294 169.731 67.788 169.089 67.788C168.447 67.788 167.948 67.1294 167.948 66.3244C167.948 65.5194 168.447 64.8607 169.089 64.8607C169.731 64.8607 170.23 65.5194 170.23 66.3244Z" fill="black"/>
<path d="M183.92 65.5924C183.92 66.3974 183.349 67.0561 182.779 67.0561C182.137 67.0561 181.638 66.3974 181.638 65.5924C181.638 64.7874 182.137 64.1288 182.779 64.1288C183.349 64.1288 183.92 64.7874 183.92 65.5924Z" fill="black"/>
<path d="M142.993 64.8606C145.488 63.397 148.412 65.812 147.841 69.3979" stroke="#C85E8B" stroke-width="1.1" stroke-linecap="round"/>
<path d="M170.515 78.9116C170.515 78.9116 173.724 82.278 178.002 79.6434" stroke="#C85E8B" stroke-width="1.1" stroke-linecap="round"/>
<path d="M163.528 59.8843C163.528 59.8843 165.881 56.2252 170.586 57.8352" stroke="#1F2251" stroke-width="1.6" stroke-linecap="round" stroke-linejoin="round"/>
<path d="M186.344 58.0548C186.344 58.0548 183.492 54.8348 178.929 57.7621" stroke="#1F2251" stroke-width="1.6" stroke-linecap="round" stroke-linejoin="round"/>
<path d="M168.091 72.2521C168.091 74.5207 166.308 76.3503 164.098 76.3503C161.888 76.3503 160.034 74.5207 160.034 72.2521C160.034 69.9834 161.888 68.0807 164.098 68.0807C166.308 68.0807 168.091 69.9834 168.091 72.2521Z" fill="#EAB7C0"/>
<path d="M187.984 68.9589C188.055 71.3739 187.913 73.6425 187.628 75.838C186.986 76.1307 186.344 76.3503 185.631 76.3503C183.421 76.3503 181.638 74.5207 181.638 72.2521C181.638 69.9834 183.421 68.0807 185.631 68.0807C186.487 68.0807 187.342 68.3734 187.984 68.9589V68.9589Z" fill="#EAB7C0"/>
<path d="M196.54 207.712H175.863C173.439 207.712 171.799 205.663 172.298 203.101L181.068 158.826C181.567 156.265 183.991 154.216 186.487 154.216H210.087C212.583 154.216 214.152 156.265 213.653 158.826L201.959 203.101C201.46 205.663 199.036 207.712 196.54 207.712V207.712Z" fill="#2A3551"/>
<path d="M199.535 209.614H178.857C176.362 209.614 174.793 207.565 175.292 205.004L184.062 160.729C184.562 158.167 186.986 156.118 189.41 156.118H210.087C212.583 156.118 214.152 158.167 213.653 160.729L204.954 205.004C204.383 207.565 202.03 209.614 199.535 209.614Z" fill="#364380"/>
<path d="M194.472 200.686C194.472 205.077 189.339 208.883 189.339 208.883C189.339 208.883 190.551 214.884 180.996 216.859C171.371 218.909 161.602 210.346 161.602 210.346L99.4276 223.812C97.8114 224.153 96.219 224.324 94.6504 224.324C87.6629 224.324 80.9605 221.104 76.4685 215.469C70.8357 208.297 69.6236 198.564 73.4026 190.221L82.3866 170.316L85.4525 163.364L117.182 182.391L114.9 186.343L111.62 192.197L161.888 190.368C161.888 190.368 167.093 186.635 170.373 182.171C173.724 177.634 174.936 176.609 177.503 178.293C180.141 179.976 177.289 187.733 175.007 190.66C183.064 195.271 192.69 191.685 196.612 192.27C200.462 192.856 200.533 197.613 194.472 200.686V200.686Z" fill="#F0C9CF"/>
<path d="M194.472 200.686C189.553 202.882 177.36 200.906 173.938 198.564" stroke="#C85E8B" stroke-width="1.1" stroke-linecap="round"/>
<path d="M189.41 208.883C182.565 210.273 174.936 209.834 171.014 205.809" stroke="#C85E8B" stroke-width="1.1" stroke-linecap="round"/>
<path d="M187.2 175.438C185.916 175.438 185.061 174.341 185.275 173.023L186.986 164.388C187.2 163.071 188.483 162.046 189.767 162.046C191.05 162.046 191.834 163.071 191.62 164.388L189.98 173.023C189.695 174.341 188.483 175.438 187.2 175.438Z" fill="#445EC7"/>
<path d="M111.62 192.197H94.9356" stroke="#C85E8B" stroke-width="1.1" stroke-linecap="round"/>
<path d="M210.872 198.564L219.713 187.44" stroke="#C85E8B" stroke-width="1.1" stroke-linecap="round"/>
<path d="M117.182 182.318L135.221 146.605" stroke="#1F2251" stroke-width="1.1" stroke-linecap="round" stroke-linejoin="round"/>
<path d="M117.182 182.391L114.9 186.343L82.3865 170.316L85.4525 163.364L117.182 182.391Z" fill="#D683A7"/>
<path d="M159.535 323.266L171.014 284.845" stroke="#1F2251" stroke-width="1.1" stroke-linecap="round" stroke-linejoin="round"/>
<path d="M50.6574 495.829L86.9498 474.24L93.7948 484.266H109.695L111.406 499.341H51.5843C49.6592 499.341 49.0175 496.78 50.6574 495.829V495.829Z" fill="#1F2251"/>
<path d="M116.896 470.069L84.9534 463.263C82.8144 462.824 81.3883 460.628 81.8874 458.433L82.8857 453.237C83.3848 450.968 85.4525 449.578 87.6628 450.017L119.606 456.75C121.745 457.262 123.171 459.384 122.672 461.653L121.674 466.849C121.246 469.044 119.107 470.508 116.896 470.069V470.069Z" fill="#99A3CA"/>
<path d="M87.0211 449.944L120.176 456.969" stroke="#1F2251" stroke-width="1.1" stroke-linecap="round" stroke-linejoin="round"/>
<path d="M225.275 463.775L193.189 469.849C191.05 470.288 188.982 468.825 188.554 466.556L187.628 461.36C187.2 459.091 188.626 456.969 190.836 456.53L222.85 450.456C225.061 450.017 227.129 451.48 227.556 453.749L228.483 458.945C228.911 461.214 227.485 463.336 225.275 463.775Z" fill="#99A3CA"/>
<path d="M190.194 456.75L223.492 450.383" stroke="#1F2251" stroke-width="1.1" stroke-linecap="round" stroke-linejoin="round"/>
<path d="M126.237 232.667L199.036 221.689" stroke="#1F2251" stroke-width="1.1" stroke-linecap="round" stroke-linejoin="round"/>
<path d="M170.087 289.529L166.094 352.246L159.677 323.998L159.749 322.534L170.087 289.529Z" fill="#7988B8"/>
<path d="M452.013 101.818L436.184 163.071C433.618 172.804 423.707 178.439 414.295 175.512L403.6 172.145L435.899 94.2798L452.013 101.818Z" fill="#F0C9CF"/>
<path d="M438.609 89.962C438.609 89.962 437.183 94.792 432.762 95.4506C428.27 96.0361 426.131 89.8156 428.555 89.2302C430.979 88.6447 441.033 83.1561 442.316 84.7661L438.609 89.962Z" fill="#D683A7"/>
<path d="M437.468 69.7639C438.252 69.9835 438.823 70.7885 438.823 71.6667V110.746L434.616 111.697L434.901 71.5935C434.901 70.2762 436.184 69.3249 437.468 69.7639Z" fill="#2A3551"/>
<path d="M445.739 89.0839C445.739 89.0839 455.008 94.6457 456.505 96.9875C458.074 99.3293 456.077 104.525 451.086 105.33C447.807 105.843 442.245 101.671 442.459 97.2803C440.962 99.4025 432.976 106.355 430.48 102.549C428.056 98.7439 440.89 85.498 440.89 85.498C443.386 81.9853 445.739 89.0839 445.739 89.0839V89.0839Z" fill="#F0C9CF"/>
<path d="M340.854 460.482L334.152 484.266L317.467 490.925L310.623 478.704L315.186 454.408" fill="#F0C9CF"/>
<path d="M275.114 495.829L311.407 474.24L318.252 484.266H334.152L335.863 499.341H276.041C274.116 499.341 273.403 496.78 275.114 495.829V495.829Z" fill="#1F2251"/>
<path d="M471.407 454.408L475.971 478.704L469.054 490.925L452.441 484.266L445.739 460.482" fill="#F0C9CF"/>
<path d="M510.552 499.341H450.73L452.441 484.266H468.341L475.186 474.24L511.479 495.829C513.119 496.78 512.477 499.341 510.552 499.341V499.341Z" fill="#1F2251"/>
<path d="M474.402 445.772L440.106 453.456L387.699 273.575L345.917 450.383L311.977 445.26L333.796 257.256L337.147 228.349L387.985 224.324L422.067 221.689L422.708 224.324L423.065 225.861L474.402 445.772Z" fill="#647BF4"/>
<path d="M423.065 225.861L333.796 257.256L337.147 228.349L387.985 224.324H422.708L423.065 225.861Z" fill="#4257B2"/>
<path d="M425.418 220.958C425.703 223.226 424.134 225.348 421.924 225.641L340.07 238.009C337.289 238.448 334.794 236.179 334.936 233.252L337.289 167.388L339.001 119.381L351.478 91.3525L354.045 85.4979H382.78L385.917 85.937C386.725 86.0346 387.509 86.1809 388.27 86.3761C400.605 88.7911 411.229 97.0606 416.933 108.697L434.616 145.287L417.789 162.778L425.418 220.958Z" fill="#F2E7D5"/>
<path d="M349.482 111.258C348.911 112.575 348.697 113.966 348.84 115.429L351.977 157.802L349.339 159.338L337.289 166.657L322.102 175.731L319.606 177.268L314.829 135.042C312.69 116.527 322.459 98.7438 338.929 90.9865L349.125 86.1565L354.116 83.8147L357.681 84.7661L359.749 85.3515L355.685 95.597L349.482 111.258Z" fill="#F2E7D5"/>
<g style="mix-blend-mode:overlay" opacity="0.3">
<path d="M356.826 219.274C356.826 220.957 355.542 222.275 353.903 222.275C352.263 222.275 350.908 220.957 350.908 219.274C350.908 217.591 352.263 216.201 353.903 216.201C355.542 216.201 356.826 217.591 356.826 219.274Z" fill="white"/>
</g>
<g style="mix-blend-mode:overlay" opacity="0.3">
<path d="M374.437 219.274C374.437 220.957 373.083 222.275 371.443 222.275C369.803 222.275 368.448 220.957 368.448 219.274C368.448 217.591 369.803 216.201 371.443 216.201C373.083 216.201 374.437 217.591 374.437 219.274Z" fill="white"/>
</g>
<g style="mix-blend-mode:overlay" opacity="0.3">
<path d="M391.977 219.274C391.977 220.957 390.623 222.275 388.983 222.275C387.343 222.275 386.059 220.957 386.059 219.274C386.059 217.591 387.343 216.201 388.983 216.201C390.623 216.201 391.977 217.591 391.977 219.274Z" fill="white"/>
</g>
<g style="mix-blend-mode:overlay" opacity="0.3">
<path d="M409.518 219.274C409.518 220.957 408.163 222.275 406.523 222.275C404.883 222.275 403.6 220.957 403.6 219.274C403.6 217.591 404.883 216.201 406.523 216.201C408.163 216.201 409.518 217.591 409.518 219.274Z" fill="white"/>
</g>
<g style="mix-blend-mode:overlay" opacity="0.3">
<path d="M356.826 202.443C356.826 204.126 355.542 205.516 353.903 205.516C352.263 205.516 350.908 204.126 350.908 202.443C350.908 200.759 352.263 199.369 353.903 199.369C355.542 199.369 356.826 200.759 356.826 202.443Z" fill="white"/>
</g>
<g style="mix-blend-mode:overlay" opacity="0.3">
<path d="M374.437 202.443C374.437 204.126 373.083 205.516 371.443 205.516C369.803 205.516 368.448 204.126 368.448 202.443C368.448 200.759 369.803 199.369 371.443 199.369C373.083 199.369 374.437 200.759 374.437 202.443Z" fill="white"/>
</g>
<g style="mix-blend-mode:overlay" opacity="0.3">
<path d="M391.977 202.443C391.977 204.126 390.623 205.516 388.983 205.516C387.343 205.516 386.059 204.126 386.059 202.443C386.059 200.759 387.343 199.369 388.983 199.369C390.623 199.369 391.977 200.759 391.977 202.443Z" fill="white"/>
</g>
<g style="mix-blend-mode:overlay" opacity="0.3">
<path d="M409.518 202.443C409.518 204.126 408.163 205.516 406.523 205.516C404.883 205.516 403.6 204.126 403.6 202.443C403.6 200.759 404.883 199.369 406.523 199.369C408.163 199.369 409.518 200.759 409.518 202.443Z" fill="white"/>
</g>
<g style="mix-blend-mode:overlay" opacity="0.3">
<path d="M356.826 185.611C356.826 187.294 355.542 188.684 353.903 188.684C352.263 188.684 350.908 187.294 350.908 185.611C350.908 183.928 352.263 182.61 353.903 182.61C355.542 182.61 356.826 183.928 356.826 185.611Z" fill="white"/>
</g>
<g style="mix-blend-mode:overlay" opacity="0.3">
<path d="M374.437 185.611C374.437 187.294 373.083 188.684 371.443 188.684C369.803 188.684 368.448 187.294 368.448 185.611C368.448 183.928 369.803 182.61 371.443 182.61C373.083 182.61 374.437 183.928 374.437 185.611Z" fill="white"/>
</g>
<g style="mix-blend-mode:overlay" opacity="0.3">
<path d="M391.977 185.611C391.977 187.294 390.623 188.684 388.983 188.684C387.343 188.684 386.059 187.294 386.059 185.611C386.059 183.928 387.343 182.61 388.983 182.61C390.623 182.61 391.977 183.928 391.977 185.611Z" fill="white"/>
</g>
<g style="mix-blend-mode:overlay" opacity="0.3">
<path d="M409.518 185.611C409.518 187.294 408.163 188.684 406.523 188.684C404.883 188.684 403.6 187.294 403.6 185.611C403.6 183.928 404.883 182.61 406.523 182.61C408.163 182.61 409.518 183.928 409.518 185.611Z" fill="white"/>
</g>
<g style="mix-blend-mode:overlay" opacity="0.3">
<path d="M339.286 168.852C339.286 170.535 338.002 171.853 336.362 171.853C334.722 171.853 333.368 170.535 333.368 168.852C333.368 167.169 334.722 165.778 336.362 165.778C338.002 165.778 339.286 167.169 339.286 168.852Z" fill="white"/>
</g>
<g style="mix-blend-mode:overlay" opacity="0.3">
<path d="M356.826 168.852C356.826 170.535 355.542 171.853 353.903 171.853C352.263 171.853 350.908 170.535 350.908 168.852C350.908 167.169 352.263 165.778 353.903 165.778C355.542 165.778 356.826 167.169 356.826 168.852Z" fill="white"/>
</g>
<g style="mix-blend-mode:overlay" opacity="0.3">
<path d="M374.437 168.852C374.437 170.535 373.083 171.853 371.443 171.853C369.803 171.853 368.448 170.535 368.448 168.852C368.448 167.169 369.803 165.778 371.443 165.778C373.083 165.778 374.437 167.169 374.437 168.852Z" fill="white"/>
</g>
<g style="mix-blend-mode:overlay" opacity="0.3">
<path d="M391.977 168.852C391.977 170.535 390.623 171.853 388.983 171.853C387.343 171.853 386.059 170.535 386.059 168.852C386.059 167.169 387.343 165.778 388.983 165.778C390.623 165.778 391.977 167.169 391.977 168.852Z" fill="white"/>
</g>
<g style="mix-blend-mode:overlay" opacity="0.3">
<path d="M409.518 168.852C409.518 170.535 408.163 171.853 406.523 171.853C404.883 171.853 403.6 170.535 403.6 168.852C403.6 167.169 404.883 165.778 406.523 165.778C408.163 165.778 409.518 167.169 409.518 168.852Z" fill="white"/>
</g>
<g style="mix-blend-mode:overlay" opacity="0.3">
<path d="M339.286 152.02C339.286 153.703 338.002 155.094 336.362 155.094C334.722 155.094 333.368 153.703 333.368 152.02C333.368 150.337 334.722 148.947 336.362 148.947C338.002 148.947 339.286 150.337 339.286 152.02Z" fill="white"/>
</g>
<g style="mix-blend-mode:overlay" opacity="0.3">
<path d="M356.826 152.02C356.826 153.703 355.542 155.094 353.903 155.094C352.263 155.094 350.908 153.703 350.908 152.02C350.908 150.337 352.263 148.947 353.903 148.947C355.542 148.947 356.826 150.337 356.826 152.02Z" fill="white"/>
</g>
<g style="mix-blend-mode:overlay" opacity="0.3">
<path d="M374.437 152.02C374.437 153.703 373.083 155.094 371.443 155.094C369.803 155.094 368.448 153.703 368.448 152.02C368.448 150.337 369.803 148.947 371.443 148.947C373.083 148.947 374.437 150.337 374.437 152.02Z" fill="white"/>
</g>
<g style="mix-blend-mode:overlay" opacity="0.3">
<path d="M391.977 152.02C391.977 153.703 390.623 155.094 388.983 155.094C387.343 155.094 386.059 153.703 386.059 152.02C386.059 150.337 387.343 148.947 388.983 148.947C390.623 148.947 391.977 150.337 391.977 152.02Z" fill="white"/>
</g>
<g style="mix-blend-mode:overlay" opacity="0.3">
<path d="M409.518 152.02C409.518 153.703 408.163 155.094 406.523 155.094C404.883 155.094 403.6 153.703 403.6 152.02C403.6 150.337 404.883 148.947 406.523 148.947C408.163 148.947 409.518 150.337 409.518 152.02Z" fill="white"/>
</g>
<g style="mix-blend-mode:overlay" opacity="0.3">
<path d="M321.746 135.188C321.746 136.872 320.462 138.262 318.822 138.262C317.182 138.262 315.828 136.872 315.828 135.188C315.828 133.505 317.182 132.188 318.822 132.188C320.462 132.188 321.746 133.505 321.746 135.188Z" fill="white"/>
</g>
<g style="mix-blend-mode:overlay" opacity="0.3">
<path d="M339.286 135.188C339.286 136.872 338.002 138.262 336.362 138.262C334.722 138.262 333.368 136.872 333.368 135.188C333.368 133.505 334.722 132.188 336.362 132.188C338.002 132.188 339.286 133.505 339.286 135.188Z" fill="white"/>
</g>
<g style="mix-blend-mode:overlay" opacity="0.3">
<path d="M356.826 135.188C356.826 136.872 355.542 138.262 353.903 138.262C352.263 138.262 350.908 136.872 350.908 135.188C350.908 133.505 352.263 132.188 353.903 132.188C355.542 132.188 356.826 133.505 356.826 135.188Z" fill="white"/>
</g>
<g style="mix-blend-mode:overlay" opacity="0.3">
<path d="M374.437 135.188C374.437 136.872 373.083 138.262 371.443 138.262C369.803 138.262 368.448 136.872 368.448 135.188C368.448 133.505 369.803 132.188 371.443 132.188C373.083 132.188 374.437 133.505 374.437 135.188Z" fill="white"/>
</g>
<g style="mix-blend-mode:overlay" opacity="0.3">
<path d="M391.977 135.188C391.977 136.872 390.623 138.262 388.983 138.262C387.343 138.262 386.059 136.872 386.059 135.188C386.059 133.505 387.343 132.188 388.983 132.188C390.623 132.188 391.977 133.505 391.977 135.188Z" fill="white"/>
</g>
<g style="mix-blend-mode:overlay" opacity="0.3">
<path d="M409.518 135.188C409.518 136.872 408.163 138.262 406.523 138.262C404.883 138.262 403.6 136.872 403.6 135.188C403.6 133.505 404.883 132.188 406.523 132.188C408.163 132.188 409.518 133.505 409.518 135.188Z" fill="white"/>
</g>
<g style="mix-blend-mode:overlay" opacity="0.3">
<path d="M321.746 118.43C321.746 120.113 320.462 121.43 318.822 121.43C317.182 121.43 315.828 120.113 315.828 118.43C315.828 116.747 317.182 115.356 318.822 115.356C320.462 115.356 321.746 116.747 321.746 118.43Z" fill="white"/>
</g>
<g style="mix-blend-mode:overlay" opacity="0.3">
<path d="M339.286 118.43C339.286 120.113 338.002 121.43 336.362 121.43C334.722 121.43 333.368 120.113 333.368 118.43C333.368 116.747 334.722 115.356 336.362 115.356C338.002 115.356 339.286 116.747 339.286 118.43Z" fill="white"/>
</g>
<g style="mix-blend-mode:overlay" opacity="0.3">
<path d="M356.826 118.43C356.826 120.113 355.542 121.43 353.903 121.43C352.263 121.43 350.908 120.113 350.908 118.43C350.908 116.747 352.263 115.356 353.903 115.356C355.542 115.356 356.826 116.747 356.826 118.43Z" fill="white"/>
</g>
<g style="mix-blend-mode:overlay" opacity="0.3">
<path d="M374.437 118.43C374.437 120.113 373.083 121.43 371.443 121.43C369.803 121.43 368.448 120.113 368.448 118.43C368.448 116.747 369.803 115.356 371.443 115.356C373.083 115.356 374.437 116.747 374.437 118.43Z" fill="white"/>
</g>
<g style="mix-blend-mode:overlay" opacity="0.3">
<path d="M391.977 118.43C391.977 120.113 390.623 121.43 388.983 121.43C387.343 121.43 386.059 120.113 386.059 118.43C386.059 116.747 387.343 115.356 388.983 115.356C390.623 115.356 391.977 116.747 391.977 118.43Z" fill="white"/>
</g>
<g style="mix-blend-mode:overlay" opacity="0.3">
<path d="M409.518 118.43C409.518 120.113 408.163 121.43 406.523 121.43C404.883 121.43 403.6 120.113 403.6 118.43C403.6 116.747 404.883 115.356 406.523 115.356C408.163 115.356 409.518 116.747 409.518 118.43Z" fill="white"/>
</g>
<g style="mix-blend-mode:overlay" opacity="0.3">
<path d="M339.286 101.598C339.286 103.281 338.002 104.672 336.362 104.672C334.722 104.672 333.368 103.281 333.368 101.598C333.368 99.9148 334.722 98.5243 336.362 98.5243C338.002 98.5243 339.286 99.9148 339.286 101.598Z" fill="white"/>
</g>
<g style="mix-blend-mode:overlay" opacity="0.3">
<path d="M356.826 101.598C356.826 103.281 355.542 104.672 353.903 104.672C352.263 104.672 350.908 103.281 350.908 101.598C350.908 99.9148 352.263 98.5243 353.903 98.5243C355.542 98.5243 356.826 99.9148 356.826 101.598Z" fill="white"/>
</g>
<g style="mix-blend-mode:overlay" opacity="0.3">
<path d="M374.437 101.598C374.437 103.281 373.083 104.672 371.443 104.672C369.803 104.672 368.448 103.281 368.448 101.598C368.448 99.9148 369.803 98.5243 371.443 98.5243C373.083 98.5243 374.437 99.9148 374.437 101.598Z" fill="white"/>
</g>
<g style="mix-blend-mode:overlay" opacity="0.3">
<path d="M391.977 101.598C391.977 103.281 390.623 104.672 388.983 104.672C387.343 104.672 386.059 103.281 386.059 101.598C386.059 99.9148 387.343 98.5243 388.983 98.5243C390.623 98.5243 391.977 99.9148 391.977 101.598Z" fill="white"/>
</g>
<g style="mix-blend-mode:overlay" opacity="0.3">
<path d="M409.518 101.598C409.518 103.281 408.163 104.672 406.523 104.672C404.883 104.672 403.6 103.281 403.6 101.598C403.6 99.9148 404.883 98.5243 406.523 98.5243C408.163 98.5243 409.518 99.9148 409.518 101.598Z" fill="white"/>
</g>
<path d="M393.404 153.118L410.872 113.527C411.585 111.99 412.869 110.819 414.437 110.38L485.525 90.4012C486.737 90.0353 489.233 93.1089 488.662 94.2066L462.78 143.531C461.924 145.288 460.498 146.605 458.787 147.263L391.906 173.316L393.404 153.118Z" fill="#2A3551"/>
<path d="M394.687 156.045L412.156 116.454C412.869 114.917 414.152 113.746 415.721 113.307L486.808 93.3284C488.021 92.9624 489.09 94.2797 488.52 95.3775L464.063 146.458C463.208 148.215 461.782 149.532 459.999 150.191L393.19 176.243L394.687 156.045Z" fill="#364380"/>
<path d="M411.942 165.339C411.942 165.339 413.368 168.779 406.309 175.512C399.25 182.171 388.555 177.853 388.555 177.853L360.106 199.954C356.113 203.028 351.264 204.638 346.487 204.638C342.851 204.638 339.286 203.76 335.935 202.003C329.874 198.783 325.525 192.856 324.17 185.977L323.956 184.952L322.102 175.731L337.289 166.657L349.339 159.338L349.767 161.68L351.621 172.365L382.494 156.85C382.494 156.85 388.698 146.605 391.692 143.019C394.687 139.36 397.967 138.774 399.036 141.116C400.106 143.458 393.404 153.118 393.404 153.118C393.404 153.118 395.899 152.898 403.386 150.264C410.801 147.629 415.721 142.141 417.717 143.751C419.714 145.434 418.573 150.264 415.863 153.996C416.576 160.583 411.942 165.339 411.942 165.339Z" fill="#F0C9CF"/>
<path d="M349.767 161.68L323.956 184.952L322.102 175.731L337.289 166.657L349.339 159.338L349.767 161.68Z" fill="#D683A7"/>
<path d="M388.27 85.6442C387.058 92.4502 383.279 99.4025 373.154 100.573C365.097 101.452 359.535 98.9633 355.685 95.597C353.974 94.0602 352.548 92.3038 351.478 90.6206C350.48 89.0106 349.696 87.4738 349.125 86.1565L354.116 83.8147L357.681 84.7661H382.78L385.917 85.2052C386.725 85.3027 387.509 85.4491 388.27 85.6442Z" fill="white"/>
<path d="M373.938 95.8898C359.821 97.4998 354.116 83.8147 354.116 83.8147L356.968 82.5707C356.968 82.5707 357.468 71.0811 356.398 64.3484L360.462 65.4461L380.213 70.642C378.359 75.0329 378.858 81.1802 379.072 83.1561C379.143 83.5952 379.143 83.8147 379.143 83.8147L382.78 84.7661C382.78 84.7661 383.35 94.792 373.938 95.8898V95.8898Z" fill="#F0C9CF"/>
<path d="M379.072 83.156C371.157 83.3756 361.104 80.5215 358.038 69.9101C357.325 67.4951 358.395 66.1047 360.462 65.446L380.213 70.6419C378.359 75.0329 378.858 81.1801 379.072 83.156Z" fill="#D683A7"/>
<path d="M353.047 57.1034L345.845 48.0288C342.138 43.3452 342.494 36.5393 346.772 32.2947C342.851 22.7079 348.341 11.877 358.181 9.68153L365.596 7.99835C366.879 7.70562 368.092 7.12016 369.161 6.31516L376.22 1.04607C377.931 -0.271202 380.213 -0.344386 382.067 0.826523C384.348 2.29016 385.133 5.3638 383.92 7.85199L381.71 12.0233C381.496 12.5356 381.995 13.0479 382.494 12.7552L395.257 4.5588C396.897 3.53426 399.036 3.82698 400.32 5.29062C401.603 6.75426 401.746 8.87653 400.605 10.4134L391.835 23.0738C391.55 23.5861 391.977 24.0984 392.477 23.952L394.616 23.147C396.826 22.342 399.25 23.2202 400.462 25.2693C401.675 27.2452 401.389 29.8065 399.892 31.4165C395.685 36.027 387.771 45.2479 386.701 50.4438C385.275 57.6156 353.047 57.1034 353.047 57.1034V57.1034Z" fill="#1F2251"/>
<path d="M387.771 42.9793C387.485 44.3697 387.272 46.492 387.272 49.5657C387.272 51.6147 387.699 54.9811 387.699 58.6402C387.771 61.2016 387.628 63.9093 387.058 66.4707C385.846 72.4716 382.352 77.5211 373.653 77.5211C355.756 77.5211 353.902 59.372 353.902 59.372C353.902 59.372 353.475 63.7629 349.411 61.7138C346.416 60.177 345.418 53.1516 348.769 51.4684C350.765 50.517 352.904 51.8343 354.33 53.0784C354.972 53.5907 355.828 53.1516 355.756 52.3466L355.043 43.7843C359.963 45.2479 377.432 40.1984 384.348 33.2461C384.42 35.0756 385.703 37.1979 386.772 38.7347C387.628 39.9056 387.985 41.4425 387.771 42.9793V42.9793Z" fill="#F0C9CF"/>
<path d="M375.15 52.5662L377.717 58.7866C378.216 59.9575 377.788 61.348 376.719 62.0066L375.15 62.958" stroke="#C85E8B" stroke-width="1.1" stroke-linecap="round"/>
<path d="M369.375 55.4933C369.375 56.3715 368.876 57.0301 368.234 57.0301C367.592 57.0301 367.093 56.3715 367.093 55.4933C367.093 54.6883 367.592 54.0297 368.234 54.0297C368.876 54.0297 369.375 54.6883 369.375 55.4933Z" fill="black"/>
<path d="M383.065 54.6884C383.065 55.4934 382.566 56.152 381.924 56.152C381.282 56.152 380.783 55.4934 380.783 54.6884C380.783 53.8834 381.282 53.2247 381.924 53.2247C382.566 53.2247 383.065 53.8834 383.065 54.6884Z" fill="black"/>
<path d="M362.673 50.5902C362.673 50.5902 365.026 46.9312 369.731 48.5412" stroke="#1F2251" stroke-width="1.6" stroke-linecap="round" stroke-linejoin="round"/>
<path d="M385.489 48.7606C385.489 48.7606 382.637 45.5406 378.074 48.4679" stroke="#1F2251" stroke-width="1.6" stroke-linecap="round" stroke-linejoin="round"/>
<path d="M369.731 66.4706L376.505 66.8365C376.505 66.8365 376.291 70.4224 372.869 70.2029C369.446 69.9101 369.731 66.4706 369.731 66.4706Z" fill="white"/>
<path d="M348.484 54.9079C350.48 53.6638 352.263 55.2738 351.906 58.3474" stroke="#C85E8B" stroke-width="1.1" stroke-linecap="round"/>
<path d="M368.733 62.4457C368.733 64.7144 366.951 66.6171 364.74 66.6171C362.53 66.6171 360.747 64.7144 360.747 62.4457C360.747 60.1771 362.53 58.3475 364.74 58.3475C366.951 58.3475 368.733 60.1771 368.733 62.4457Z" fill="#EAB7C0"/>
<path d="M387.699 58.6403C387.771 61.2016 387.628 63.9094 387.058 66.4707C386.82 66.5683 386.559 66.6171 386.273 66.6171C384.063 66.6171 382.28 64.7144 382.28 62.4457C382.28 60.1771 384.063 58.3475 386.273 58.3475C386.796 58.3475 387.272 58.4451 387.699 58.6403V58.6403Z" fill="#EAB7C0"/>
<path d="M351.621 172.365L340.284 178.219" stroke="#C85E8B" stroke-width="1.1" stroke-linecap="round"/>
<path d="M415.863 153.996C413.368 159.119 399.678 161.095 399.678 161.095" stroke="#C85E8B" stroke-width="1.1" stroke-linecap="round"/>
<path d="M411.942 165.339C406.452 171.487 397.254 169.95 397.254 169.95" stroke="#C85E8B" stroke-width="1.1" stroke-linecap="round"/>
<path d="M349.339 159.339L344.562 123.992" stroke="#1F2251" stroke-width="1.1" stroke-linecap="round" stroke-linejoin="round"/>
<path d="M407.806 187.44L373.154 217.445" stroke="#1F2251" stroke-width="1.1" stroke-linecap="round" stroke-linejoin="round"/>
<path d="M343.279 462.311L310.979 458.067C308.769 457.774 307.2 455.652 307.485 453.456L308.127 448.187C308.412 445.919 310.48 444.309 312.619 444.601L344.99 448.919C347.2 449.212 348.769 451.261 348.484 453.53L347.771 458.799C347.485 460.994 345.489 462.604 343.279 462.311Z" fill="#647BF4"/>
<path d="M311.977 444.601L345.632 449.065" stroke="#1F2251" stroke-width="1.1" stroke-linecap="round" stroke-linejoin="round"/>
<path d="M476.541 455.359L445.24 464.8C443.101 465.385 440.89 464.141 440.249 461.945L438.823 456.896C438.181 454.7 439.393 452.432 441.532 451.773L472.833 442.406C474.972 441.747 477.183 442.991 477.824 445.187L479.251 450.31C479.892 452.505 478.68 454.774 476.541 455.359Z" fill="#647BF4"/>
<path d="M440.962 451.993L473.475 442.26" stroke="#1F2251" stroke-width="1.1" stroke-linecap="round" stroke-linejoin="round"/>
<g style="mix-blend-mode:overlay" opacity="0.3">
<path d="M416.149 119.308C418.074 117.844 420.427 117.844 421.496 119.308C422.566 120.772 421.924 123.187 419.999 124.577C418.074 126.041 415.721 126.041 414.651 124.577C413.582 123.04 414.224 120.698 416.149 119.308Z" fill="white"/>
</g>
<g style="mix-blend-mode:overlay" opacity="0.3">
<path d="M417.076 120.552C418.074 119.82 419.286 119.82 419.856 120.625C420.356 121.357 419.999 122.601 419.072 123.333C418.074 124.065 416.862 124.065 416.291 123.26C415.792 122.528 416.149 121.284 417.076 120.552Z" fill="white"/>
</g>
<path d="M390.48 257.256L381.425 300.214" stroke="#1F2251" stroke-width="1.1" stroke-linecap="round" stroke-linejoin="round"/>
<path d="M512.263 139.799H511.336C511.669 139.701 511.978 139.701 512.263 139.799Z" fill="#364380"/>
<path d="M608.021 418.036L603.671 484.925L586.987 491.584L580.142 479.436L582.424 411.962" fill="#F0C9CF"/>
<path d="M544.563 496.487L580.855 474.899L587.771 484.924H603.671L605.383 500H545.49C543.636 500 542.923 497.439 544.563 496.487V496.487Z" fill="#EBAF65"/>
<path d="M693.369 411.962L714.331 479.436L707.415 491.584L690.802 484.925L667.771 418.036" fill="#F0C9CF"/>
<path d="M748.912 500H689.091L690.802 484.924H706.631L713.547 474.899L749.839 496.487C751.479 497.439 750.766 500 748.912 500V500Z" fill="#EBAF64"/>
<path d="M649.304 189.416C656.577 206.687 654.296 219.64 658.859 244.376C663.422 269.111 704.349 442.26 704.349 442.26L674.117 451.993L622.923 287.919L609.875 447.163L575.864 444.601L584.491 190.002L649.304 189.416Z" fill="#292F69"/>
<path d="M659.215 56.2252C658.645 78.1065 665.347 85.2052 669.554 92.4502C673.761 99.6952 666.702 109.941 643.957 110.087C621.212 110.307 587.13 99.9147 585.418 92.4502C583.707 84.9856 598.966 67.4952 596.684 49.2729C594.402 31.0506 601.889 16.2679 611.657 19.0488C645.026 -6.49169 659.786 34.3438 659.215 56.2252V56.2252Z" fill="#1F2251"/>
<path d="M588.27 143.458L566.452 180.195L529.732 173.316L516.684 108.184C516.684 108.184 498.787 81.5461 499.357 72.3984C499.928 63.3238 502.709 60.177 505.204 61.5674C507.7 62.8847 507.272 73.6424 507.985 76.7161C508.627 79.8629 519.821 89.8888 519.821 89.8888C519.821 89.8888 520.463 85.8638 520.463 81.6924C520.463 77.4479 521.461 72.5447 524.099 73.4229C526.809 74.3011 526.167 80.302 528.163 84.7661C530.16 89.3034 532.655 105.33 532.655 105.33L552.121 152.313L564.741 123.26L588.27 143.458Z" fill="#F0C9CF"/>
<path d="M677.183 131.822L663.707 141.921L662.424 142.873L652.37 150.337L650.802 191.392L644.67 191.246H643.386L625.632 190.88L624.349 190.807L606.595 190.441H605.311L587.557 190.075H586.274L584.491 190.002C584.491 190.002 585.204 179.976 582.352 165.339C579.5 150.776 583.493 140.677 583.493 140.677L564.741 123.26L574.367 107.965C577.29 103.281 581.425 99.5489 586.274 97.1339C586.702 96.89 587.13 96.6948 587.557 96.5485C588.936 95.9142 590.386 95.4019 591.907 95.0116L605.311 91.4257L606.024 91.2794L606.595 91.133L611.158 89.8889L624.349 89.9621H625.632H640.035L643.386 91.7916L644.67 92.5235L656.791 99.0366C658.835 100.11 660.713 101.427 662.424 102.988C662.852 103.33 663.279 103.72 663.707 104.159C666.631 107.087 668.984 110.673 670.552 114.698L677.183 131.822Z" fill="#6D9886"/>
<g style="mix-blend-mode:overlay" opacity="0.3">
<path d="M587.557 96.5485V190.075H586.274V97.1339C586.702 96.89 587.13 96.6948 587.557 96.5485Z" fill="white"/>
</g>
<g style="mix-blend-mode:overlay" opacity="0.3">
<path d="M606.595 91.1328V190.441H605.311V91.4256L606.024 91.2792L606.595 91.1328Z" fill="white"/>
</g>
<g style="mix-blend-mode:overlay" opacity="0.3">
<path d="M625.632 89.962V190.88L624.349 190.807V89.962H625.632Z" fill="white"/>
</g>
<g style="mix-blend-mode:overlay" opacity="0.3">
<path d="M644.67 92.5234V191.246H643.386V91.7916L644.67 92.5234Z" fill="white"/>
</g>
<g style="mix-blend-mode:overlay" opacity="0.3">
<path d="M663.707 104.159V141.921L662.424 142.872V102.988C662.852 103.33 663.279 103.72 663.707 104.159V104.159Z" fill="white"/>
</g>
<path d="M644.67 92.5235C640.748 100.793 630.338 105.623 617.575 104.745C606.809 104.013 605.525 96.6948 606.024 91.2794L611.158 89.8889L640.035 89.9621L644.67 92.5235Z" fill="white"/>
<path d="M640.035 89.9621C640.035 89.9621 634.759 100.793 621.283 100.793C607.807 100.793 611.158 89.8889 611.158 89.8889L614.937 88.6448L614.723 81.9121L614.367 72.0326L637.326 64.8607C636.827 65.8853 636.541 67.2757 636.256 68.8857C635.258 76.3503 636.399 88.6448 636.399 88.6448L640.035 89.9621Z" fill="#F0C9CF"/>
<path d="M637.326 64.8607C636.827 65.8853 636.541 67.2757 636.256 68.8857C636.256 68.8857 636.256 68.9101 636.256 68.9589C629.839 82.2048 619.001 82.3512 614.723 81.9121L614.367 72.0326L637.326 64.8607Z" fill="#D683A7"/>
<path d="M612.156 29.4407C614.224 41.0766 638.395 49.0534 640.107 50.3707C641.105 51.1757 641.461 53.0052 641.533 54.3957C641.533 54.6884 641.96 54.7616 642.032 54.4689C642.673 52.7857 643.886 50.2975 645.953 50.078C649.091 49.712 652.228 53.8102 650.374 58.7866C648.591 63.763 641.247 61.1284 641.247 61.1284C641.247 61.1284 635.329 75.9843 621.639 76.3503C608.021 76.7893 604.955 64.8607 606.024 57.6157C607.023 50.2975 606.951 46.6384 606.31 42.3939C605.739 38.0761 611.016 35.0025 612.156 29.4407V29.4407Z" fill="#F0C9CF"/>
<path d="M647.023 52.932C645.811 53.2979 644.598 56.4447 645.098 57.9816" stroke="#C85E8B" stroke-width="1.1" stroke-linecap="round"/>
<path d="M619.572 62.1529L618.003 61.2015C616.934 60.5429 616.506 59.2256 617.005 58.0547L619.572 51.8342" stroke="#C85E8B" stroke-width="1.1" stroke-linecap="round"/>
<path d="M626.488 53.298C627.13 53.298 627.629 53.9566 627.629 54.7616C627.629 55.5666 627.13 56.2252 626.488 56.2252C625.846 56.2252 625.347 55.5666 625.347 54.7616C625.347 53.9566 625.846 53.298 626.488 53.298Z" fill="black"/>
<path d="M612.798 52.4929C613.44 52.4929 613.939 53.1516 613.939 53.9566C613.939 54.7616 613.44 55.4202 612.798 55.4202C612.156 55.4202 611.657 54.7616 611.657 53.9566C611.657 53.1516 612.156 52.4929 612.798 52.4929Z" fill="black"/>
<path d="M631.336 46.7847C631.336 46.7847 628.413 43.5647 623.992 45.9066" stroke="#1F2251" stroke-width="1.6" stroke-linecap="round" stroke-linejoin="round"/>
<path d="M609.09 46.7115C609.09 46.7115 611.942 43.4915 616.506 46.4188" stroke="#1F2251" stroke-width="1.6" stroke-linecap="round" stroke-linejoin="round"/>
<path d="M616.577 54.3226C616.577 57.6157 614.01 60.3235 610.802 60.3235C607.522 60.3235 604.955 57.6157 604.955 54.3226C604.955 51.0294 607.522 48.3217 610.802 48.3217C614.01 48.3217 616.577 51.0294 616.577 54.3226Z" stroke="#647BF4" stroke-width="1.6"/>
<path d="M632.834 54.3226C632.834 57.6157 630.196 60.3235 626.987 60.3235C623.707 60.3235 621.14 57.6157 621.14 54.3226C621.14 51.0294 623.707 48.3217 626.987 48.3217C630.196 48.3217 632.834 51.0294 632.834 54.3226Z" stroke="#647BF4" stroke-width="1.6"/>
<path d="M616.435 52.932C616.435 52.932 618.93 50.517 621.283 52.932" stroke="#647BF4" stroke-width="1.6"/>
<path d="M621.283 67.4952C621.283 67.4952 624.991 69.1052 628.057 66.3975" stroke="#C85E8B" stroke-width="1.1" stroke-linecap="round"/>
<path d="M579.928 189.416H523.315C522.388 189.416 521.532 188.831 521.247 187.879L509.054 142.653C508.769 141.482 509.411 140.311 510.552 140.018L511.265 139.799C511.265 139.799 511.289 139.799 511.336 139.799H567.949L579.928 189.416Z" fill="#99A3CA"/>
<path d="M546.203 166.803C546.203 169.291 544.206 171.34 541.782 171.34C539.358 171.34 537.361 169.291 537.361 166.803C537.361 164.315 539.358 162.339 541.782 162.339C544.206 162.339 546.203 164.315 546.203 166.803Z" fill="#E6E9FC"/>
<path d="M577.86 187.294V186.489C577.86 185.391 578.787 184.44 579.928 184.44H624.919C626.06 184.44 626.987 185.391 626.987 186.489V187.294C626.987 188.465 626.06 189.416 624.919 189.416H579.928C578.787 189.416 577.86 188.465 577.86 187.294Z" fill="#7988B8"/>
<path d="M567.236 140.018L567.949 139.799C569.09 139.506 570.231 140.165 570.516 141.263L582.424 185.757C582.78 186.928 582.138 188.026 580.998 188.392L580.285 188.611C579.215 188.904 578.074 188.245 577.789 187.074L565.81 142.58C565.525 141.482 566.167 140.311 567.236 140.018V140.018Z" fill="#7988B8"/>
<path d="M697.647 202.369C697.647 208.078 695.223 213.566 690.802 217.298C684.313 222.714 675.116 223.153 668.199 218.25L636.755 196.003C636.755 196.003 619.572 199.881 611.871 199.149C604.171 198.418 595.9 194.246 595.9 192.636C595.828 190.953 626.916 187.66 625.418 186.343C623.992 185.025 610.089 184.879 609.875 181.805C609.732 178.732 613.226 177.707 619.001 177.341C624.848 176.902 632.192 179.903 632.192 179.903L663.707 184.44L654.795 157.582L652.37 150.337L677.183 131.822L678.823 137.237L696.791 196.661C697.362 198.564 697.647 200.467 697.647 202.369Z" fill="#F0C9CF"/>
<path d="M677.183 131.822L678.823 137.237L654.795 157.582L652.37 150.337L677.183 131.822Z" fill="#D683A7"/>
<path d="M663.707 184.44L677.183 186.269" stroke="#C85E8B" stroke-width="1.1" stroke-linecap="round"/>
<path d="M589.055 186.928C589.055 187.367 588.698 187.66 588.27 187.66C587.843 187.66 587.557 187.367 587.557 186.928C587.557 186.489 587.843 186.123 588.27 186.123C588.698 186.123 589.055 186.489 589.055 186.928Z" fill="#1F2251"/>
<path d="M592.049 186.928C592.049 187.367 591.693 187.66 591.265 187.66C590.909 187.66 590.552 187.367 590.552 186.928C590.552 186.489 590.909 186.123 591.265 186.123C591.693 186.123 592.049 186.489 592.049 186.928Z" fill="#1F2251"/>
<path d="M608.877 456.384L576.292 455.286C574.081 455.14 572.299 453.237 572.37 450.968L572.584 445.699C572.655 443.43 574.509 441.674 576.72 441.747L609.304 442.845C611.515 442.918 613.226 444.821 613.155 447.09L613.012 452.432C612.941 454.7 611.087 456.457 608.877 456.384V456.384Z" fill="#99A3CA"/>
<path d="M706.845 448.846L675.615 458.433C673.476 459.091 671.265 457.847 670.624 455.652L669.126 450.602C668.485 448.407 669.697 446.138 671.836 445.48L703.066 435.82C705.205 435.234 707.415 436.405 708.057 438.601L709.554 443.723C710.196 445.846 708.984 448.187 706.845 448.846Z" fill="#99A3CA"/>
<path d="M613.083 254.694L628.841 307.093" stroke="#1F2251" stroke-width="1.1" stroke-linecap="round" stroke-linejoin="round"/>
<path d="M587.557 164.168C595.9 172.145 610.802 173.316 610.802 173.316" stroke="#1F2251" stroke-width="1.1" stroke-linecap="round" stroke-linejoin="round"/>
<path d="M652.37 150.337L641.604 131.822" stroke="#1F2251" stroke-width="1.1" stroke-linecap="round" stroke-linejoin="round"/>
<path d="M583.493 140.677C588.128 131.31 589.055 119.162 589.055 119.162" stroke="#1F2251" stroke-width="1.1" stroke-linecap="round" stroke-linejoin="round"/>
<path d="M30.1939 500H779.144" stroke="#97A2D4" stroke-width="4.2" stroke-linecap="round" stroke-linejoin="round"/>
<path d="M567.236 1.48511V63.2506L552.049 47.736H494.081V1.48511H567.236Z" fill="white"/>
<path d="M513.832 12.5355H547.486" stroke="#647BF4" stroke-width="2" stroke-linecap="round" stroke-linejoin="round"/>
<path opacity="0.3" d="M519.393 19.6342H547.486" stroke="#647BF4" stroke-width="2" stroke-linecap="round" stroke-linejoin="round"/>
<path opacity="0.3" d="M513.832 26.7328H547.486" stroke="#647BF4" stroke-width="2" stroke-linecap="round" stroke-linejoin="round"/>
<path opacity="0.3" d="M523.885 33.8314H547.486" stroke="#647BF4" stroke-width="2" stroke-linecap="round" stroke-linejoin="round"/>
<path d="M302.209 35.9537V82.2047H244.241L229.125 97.7192V35.9537H302.209Z" fill="white"/>
<path d="M282.53 48.4679H248.875" stroke="#EBAF65" stroke-width="2" stroke-linecap="round" stroke-linejoin="round"/>
<path opacity="0.3" d="M276.968 55.5665H248.875" stroke="#647BF4" stroke-width="2" stroke-linecap="round" stroke-linejoin="round"/>
<path opacity="0.3" d="M282.53 62.6652H248.875" stroke="#647BF4" stroke-width="2" stroke-linecap="round" stroke-linejoin="round"/>
<path opacity="0.3" d="M272.476 69.7638H248.875" stroke="#647BF4" stroke-width="2" stroke-linecap="round" stroke-linejoin="round"/>
</svg>
